<svg width="244" height="218" viewBox="0 0 244 218" fill="none" xmlns="http://www.w3.org/2000/svg">
<path d="M121.799 108.8L169.084 190.7H74.5142L121.799 108.8Z" fill="url(#paint0_linear_402_1956)"/>
<path d="M121.698 108.885L216.268 108.885L168.983 190.785L121.698 108.885Z" fill="url(#paint1_linear_402_1956)"/>
<path d="M121.7 109.084L168.985 27.1839L216.27 109.084L121.7 109.084Z" fill="url(#paint2_linear_402_1956)"/>
<path d="M121.799 109.2L74.5136 27.3H169.083L121.799 109.2Z" fill="url(#paint3_linear_402_1956)"/>
<path d="M121.868 109.085L27.2982 109.085L74.5831 27.1847L121.868 109.085Z" fill="url(#paint4_linear_402_1956)"/>
<path d="M121.87 108.885L74.5854 190.785L27.3004 108.885L121.87 108.885Z" fill="url(#paint5_linear_402_1956)"/>
<defs>
<linearGradient id="paint0_linear_402_1956" x1="132.78" y1="131.127" x2="119.138" y2="217.58" gradientUnits="userSpaceOnUse">
<stop offset="0.426" stop-color="#001423"/>
<stop offset="1" stop-color="#349BE5"/>
</linearGradient>
<linearGradient id="paint1_linear_402_1956" x1="146.525" y1="110.538" x2="214.574" y2="165.579" gradientUnits="userSpaceOnUse">
<stop offset="0.426" stop-color="#001423"/>
<stop offset="1" stop-color="#349BE5"/>
</linearGradient>
<linearGradient id="paint2_linear_402_1956" x1="135.545" y1="88.4104" x2="217.237" y2="56.9985" gradientUnits="userSpaceOnUse">
<stop offset="0.426" stop-color="#001423"/>
<stop offset="1" stop-color="#349BE5"/>
</linearGradient>
<linearGradient id="paint3_linear_402_1956" x1="110.817" y1="86.873" x2="124.46" y2="0.419906" gradientUnits="userSpaceOnUse">
<stop offset="0.426" stop-color="#001423"/>
<stop offset="1" stop-color="#349BE5"/>
</linearGradient>
<linearGradient id="paint4_linear_402_1956" x1="97.0415" y1="107.431" x2="28.9921" y2="52.3905" gradientUnits="userSpaceOnUse">
<stop offset="0.426" stop-color="#001423"/>
<stop offset="1" stop-color="#349BE5"/>
</linearGradient>
<linearGradient id="paint5_linear_402_1956" x1="108.025" y1="129.558" x2="26.3336" y2="160.97" gradientUnits="userSpaceOnUse">
<stop offset="0.426" stop-color="#001423"/>
<stop offset="1" stop-color="#349BE5"/>
</linearGradient>
</defs>
</svg>
