<svg width="174" height="162" viewBox="0 0 174 162" fill="none" xmlns="http://www.w3.org/2000/svg">
<g clip-path="url(#clip0_336_121)">
<path d="M83.8524 101.415C88.3261 101.415 91.9528 97.7589 91.9528 93.249C91.9528 88.739 88.3261 85.083 83.8524 85.083C79.3786 85.083 75.752 88.739 75.752 93.249C75.752 97.7589 79.3786 101.415 83.8524 101.415Z" fill="white"/>
<path d="M71.1172 11.5176C74.696 18.7326 76.2437 26.7988 75.5919 34.8387C75.0613 40.0628 73.5226 44.021 73.4341 52.9358C73.3499 56.7538 73.6462 60.5706 74.3184 64.3289C75.1277 68.7386 76.501 73.0237 78.404 77.0771" stroke="white" stroke-width="5" stroke-linecap="round" stroke-linejoin="bevel"/>
<path d="M66.4661 8.13031C68.6932 8.13031 70.4987 6.31028 70.4987 4.06515C70.4987 1.82003 68.6932 0 66.4661 0C64.239 0 62.4336 1.82003 62.4336 4.06515C62.4336 6.31028 64.239 8.13031 66.4661 8.13031Z" fill="white"/>
<path d="M83.3223 55.0226C82.4185 52.4768 82.1453 49.747 82.5265 47.0705C82.7615 45.6783 83.1777 44.3234 83.7645 43.0411C84.5344 41.4765 85.048 39.7966 85.2855 38.0666C85.534 35.7196 85.2435 33.3465 84.4366 31.1309" stroke="white" stroke-width="5" stroke-linecap="round" stroke-linejoin="bevel"/>
<path d="M97.2754 63.2242V50.4938C95.3482 48.7524 93.2297 47.2389 90.9613 45.9829C88.7265 44.7243 86.3518 43.7368 83.8867 43.041" stroke="white" stroke-width="5" stroke-linecap="round" stroke-linejoin="bevel"/>
<path d="M118.784 17.5264C106.318 23.5356 95.7948 32.9814 88.4336 44.77" stroke="white" stroke-width="5" stroke-linecap="round" stroke-linejoin="bevel"/>
<path d="M161.231 121.508C153.242 121.055 145.528 118.403 138.929 113.842C134.702 110.775 132.066 107.459 124.426 102.948C121.185 100.974 117.754 99.3374 114.185 98.0624C109.986 96.5883 105.618 95.6596 101.186 95.2988" stroke="white" stroke-width="5" stroke-linecap="round" stroke-linejoin="bevel"/>
<path d="M169.968 125.2C172.195 125.2 174.001 123.38 174.001 121.134C174.001 118.889 172.195 117.069 169.968 117.069C167.741 117.069 165.936 118.889 165.936 121.134C165.936 123.38 167.741 125.2 169.968 125.2Z" fill="white"/>
<path d="M117.721 110.562C120.361 111.036 122.845 112.156 124.954 113.824C126.038 114.743 127.001 115.798 127.82 116.962C128.787 118.413 129.982 119.695 131.357 120.76C133.25 122.147 135.435 123.075 137.742 123.47" stroke="white" stroke-width="4" stroke-linecap="round" stroke-linejoin="bevel"/>
<path d="M103.768 118.638L114.716 124.95C119.636 123.339 124.121 120.606 127.821 116.962" stroke="white" stroke-width="4" stroke-linecap="round" stroke-linejoin="bevel"/>
<path d="M132.368 160.217C133.386 146.338 130.479 132.453 123.984 120.172" stroke="white" stroke-width="4" stroke-linecap="round" stroke-linejoin="bevel"/>
<path d="M19.0488 142.761C23.7283 136.22 30.096 131.096 37.4605 127.945C42.3066 125.984 46.4983 125.52 54.3688 121.455C57.7592 119.756 60.9759 117.726 63.9726 115.393C67.4634 112.617 70.5843 109.399 73.258 105.818" stroke="white" stroke-width="5" stroke-linecap="round" stroke-linejoin="bevel"/>
<path d="M14.679 154.44C16.9061 154.44 18.7115 152.62 18.7115 150.375C18.7115 148.13 16.9061 146.31 14.679 146.31C12.4519 146.31 10.6465 148.13 10.6465 150.375C10.6465 152.62 12.4519 154.44 14.679 154.44Z" fill="white"/>
<path d="M51.6086 111.613C49.7906 113.609 47.5125 115.121 44.9761 116.017C43.6474 116.452 42.268 116.71 40.8729 116.784C39.1401 116.824 37.4256 117.149 35.7968 117.747C33.6048 118.619 31.6433 119.993 30.0664 121.758" stroke="white" stroke-width="5" stroke-linecap="round" stroke-linejoin="bevel"/>
<path d="M52.3686 95.46L41.1907 101.379C39.9078 106.439 39.7989 111.729 40.8724 116.838" stroke="white" stroke-width="5" stroke-linecap="round" stroke-linejoin="bevel"/>
<path d="M2.21094 97.3496C13.2663 105.68 26.4406 110.676 40.2016 111.756" stroke="white" stroke-width="5" stroke-linecap="round" stroke-linejoin="bevel"/>
</g>
<defs>
<clipPath id="clip0_336_121">
<rect width="174" height="162" fill="white"/>
</clipPath>
</defs>
</svg>
