<svg width="246" height="383" viewBox="0 0 246 383" fill="none" xmlns="http://www.w3.org/2000/svg" xmlns:xlink="http://www.w3.org/1999/xlink">
<g clip-path="url(#clip0_359_847)">
<g style="mix-blend-mode:multiply">
<path d="M238.922 7.1068V350.038L213.169 375.893H7.07836V32.9621C17.1354 22.865 22.7739 17.2039 32.8308 7.1068H238.922ZM246 0H29.8988L27.8256 2.08151L14.9495 15.0092L2.07324 27.9368L0 30.0184V383H216.101L218.174 380.919L243.927 355.063L246 352.982V0Z" fill="#0088BE"/>
</g>
<path d="M238.921 7.10645H29.2914L7.07812 29.4085V375.893H216.708L238.921 353.591V7.10645Z" fill="url(#paint0_radial_359_847)"/>
<path d="M238.921 7.10645H29.2914L7.07812 29.4085V375.893H216.708L238.921 353.591V7.10645Z" fill="black" fill-opacity="0.4"/>
<path d="M228.304 17.7666V346.486C221.011 353.808 216.923 357.913 209.63 365.234H17.6953V36.5153C24.9879 29.1934 29.0766 25.0883 36.3694 17.7666H228.304Z" fill="url(#paint1_radial_359_847)"/>
<path d="M228.304 17.7666V346.486C221.011 353.808 216.923 357.913 209.63 365.234H17.6953V36.5153C24.9879 29.1934 29.0766 25.0883 36.3694 17.7666H228.304Z" fill="black" fill-opacity="0.2"/>
<g opacity="0.5">
<path d="M158.643 23.3223L86.9506 23.3223C86.3266 23.3223 85.7088 23.1892 85.1323 22.9305C84.5558 22.6719 84.0321 22.2928 83.5909 21.8149C83.1496 21.3369 82.7997 20.7695 82.5609 20.145C82.3221 19.5206 82.1992 18.8512 82.1992 18.1753L163.395 18.1753C163.395 18.8512 163.272 19.5206 163.033 20.145C162.794 20.7695 162.444 21.3369 162.003 21.8149C161.562 22.2928 161.038 22.6719 160.462 22.9305C159.885 23.1892 159.267 23.3223 158.643 23.3223Z" fill="#0088BE"/>
<path d="M87.3566 359.462H159.049C159.673 359.462 160.291 359.595 160.868 359.854C161.444 360.112 161.968 360.491 162.409 360.969C162.85 361.447 163.2 362.015 163.439 362.639C163.678 363.264 163.801 363.933 163.801 364.609H82.6052C82.6052 363.933 82.7281 363.264 82.9669 362.639C83.2057 362.015 83.5556 361.447 83.9968 360.969C84.438 360.491 84.9619 360.112 85.5383 359.854C86.1148 359.595 86.7326 359.462 87.3566 359.462Z" fill="#0088BE"/>
<path d="M22.8217 227.738V155.956C22.8217 155.332 22.6891 154.713 22.4315 154.136C22.1739 153.559 21.7963 153.034 21.3203 152.593C20.8442 152.151 20.2791 151.8 19.6572 151.561C19.0352 151.322 18.3685 151.199 17.6953 151.199V232.495C18.3685 232.495 19.0352 232.372 19.6572 232.133C20.2791 231.894 20.8442 231.544 21.3203 231.102C21.7963 230.66 22.1739 230.136 22.4315 229.559C22.6891 228.982 22.8217 228.363 22.8217 227.738Z" fill="#0088BE"/>
<path d="M223.176 227.738V155.956C223.176 155.332 223.308 154.713 223.566 154.136C223.824 153.559 224.201 153.034 224.677 152.593C225.153 152.151 225.718 151.8 226.34 151.561C226.962 151.322 227.629 151.199 228.302 151.199V232.495C227.629 232.495 226.962 232.372 226.34 232.133C225.718 231.894 225.153 231.544 224.677 231.102C224.201 230.66 223.824 230.136 223.566 229.559C223.308 228.982 223.176 228.363 223.176 227.738Z" fill="#0088BE"/>
</g>
<path opacity="0.8" d="M236.267 9.77154V348.934L212.069 373.228H9.73245V34.0657L33.93 9.77154H236.267ZM238.921 7.10653H32.8304L7.07812 32.9618V375.893H213.169C223.226 365.796 228.864 360.135 238.921 350.038V7.10653Z" fill="#0088BE"/>


</g>
<defs>
<pattern id="pattern0_359_847" patternContentUnits="objectBoundingBox" width="1" height="1">
<use xlink:href="#image0_359_847" transform="matrix(0.00124433 0 0 0.000931966 -0.0120413 0)"/>
</pattern>
<radialGradient id="paint0_radial_359_847" cx="0" cy="0" r="1" gradientUnits="userSpaceOnUse" gradientTransform="translate(123 191.5) rotate(180) scale(153.571 154.186)">
<stop stop-color="#45329C"/>
<stop offset="0.91677" stop-color="#090040"/>
</radialGradient>
<radialGradient id="paint1_radial_359_847" cx="0" cy="0" r="1" gradientUnits="userSpaceOnUse" gradientTransform="translate(123.002 190.798) rotate(-90) scale(256.648 193.688)">
<stop stop-color="#281777"/>
<stop offset="0.868727" stop-color="#090040"/>
</radialGradient>
<clipPath id="clip0_359_847">
<rect width="246" height="383" fill="white"/>
</clipPath>
</defs>
</svg>
