<svg width="28" height="24" viewBox="0 0 28 24" fill="none" xmlns="http://www.w3.org/2000/svg">
<path d="M24.75 6H10.125C8.8875 6 7.875 6.96923 7.875 8.15385V17.8462C7.875 19.0415 8.8875 20 10.125 20H24.75C25.9988 20 27 19.0415 27 17.8462V8.15385C27 6.96923 25.9988 6 24.75 6ZM24.75 17.8462H10.125V9.95231L17.4375 13.5385L24.75 9.95231V17.8462ZM17.4375 11.7185L10.125 8.15385H24.75L17.4375 11.7185ZM5.625 17.8462C5.625 18.0292 5.65875 18.2015 5.68125 18.3846H1.125C0.504 18.3846 0 17.9 0 17.3077C0 16.7154 0.504 16.2308 1.125 16.2308H5.625V17.8462ZM3.375 7.61538H5.68125C5.65875 7.79846 5.625 7.97077 5.625 8.15385V9.76923H3.375C2.75625 9.76923 2.25 9.28462 2.25 8.69231C2.25 8.1 2.75625 7.61538 3.375 7.61538ZM1.125 13C1.125 12.4077 1.63125 11.9231 2.25 11.9231H5.625V14.0769H2.25C1.63125 14.0769 1.125 13.5923 1.125 13Z" fill="#0088BE"/>
</svg>
